<svg xmlns="http://www.w3.org/2000/svg" version="1.1" xmlns:xlink="http://www.w3.org/1999/xlink" xmlns:svgjs="http://svgjs.dev/svgjs" width="2000" height="1500" viewBox="0 0 2000 1500"><rect width="2000" height="1500" fill="#010536"></rect><g transform="matrix(0.4444444444444444,0,0,0.4444444444444444,555.5555625,250)"><svg viewBox="0 0 320 360" data-background-color="#010536" preserveAspectRatio="xMidYMid meet" height="2250" width="2000" xmlns="http://www.w3.org/2000/svg" xmlns:xlink="http://www.w3.org/1999/xlink"><g id="tight-bounds" transform="matrix(1,0,0,1,0.0000025000000505315256,0)"><svg viewBox="0 0 320 360" height="360" width="320"><g><svg></svg></g><g><svg viewBox="0 0 320 360" height="360" width="320"><g><path transform="translate(-19.44751,3.1739) scale(3.53591,3.53591)" d="M67.6 10.7c0.2 0 1.8 0.8 2.7 1.1-0.3 0.1-1-0.2-1.8-0.5 0.2 0 0.6 0.1 1 0.3-0.2-0.2-1.7-0.7-1.9-0.9M52.7 7.6c0.3-0.1 3.8 0.4 5.4 0.5 0.1-0.1-0.2-0.1-0.6-0.2 0.5-0.1 1.5 0.2 2.2 0.3-2.1 0.1-4.4-0.5-6.4-0.3-0.7 0-0.2-0.2-0.6-0.3M49.8 7.6c1.8 0 3.2 0 0.6 0.2-0.3-0.1-0.7-0.1-0.6-0.2M78.1 15.9c0.2 0 1 0.9 1.4 1.2-0.1 0.1-0.9-0.7-1.3-1 0.1 0.1 0 0-0.1-0.2M76.1 14.6c-0.8-0.7-1.1-0.7-1.2-1.1 0.7 0.4 1.2 0.8 1.2 1.1M63.2 8.3c0.1-0.1 0.3 0.1 0.8 0.2-0.6-0.1-0.5 0-0.3 0.2-0.7-0.1-0.9-0.2-0.7-0.4 0.4 0.2 0.5 0.1 0.2 0M34.8 9.5c0-0.1 0.4-0.3 0.7-0.4-0.3 0.2-0.2 0.3 0.3 0.1 0 0.1-0.6 0.3-1 0.5 0.2-0.1 0.4-0.4 0-0.2M65.2 7.3c-0.3 0.1-1.4-0.5-2.5-0.7-0.6-0.2 2.4 0.5 2.5 0.7M6.2 56.7c0.6 2.5 0.2 2.4 0 0M6.3 41.7c0.1-0.4 0.2-1.5 0.3-1.4-0.3 2.4-0.8 3.5-0.9 5.3 0.3-1.6-0.1 0.9-0.2 1.5 0.1 0.8 0.1-0.5 0.3-0.3 0.2 0.3-0.4 4.5-0.2 2.2-0.2 2.1 0 4.4 0.4 5-0.5 3.2 2 10.4 2.5 11.9 0.1 0.1 0-0.5 0.2-0.1 0.2 1.3 1.1 2.2 1.4 3.6 0.3 0.4 1.5 2.6 1.7 3.1 0.4 0.8 0.6 0.7 1 1.5 1.2 2.3 3.1 4.5 4.9 6.6 5.8 6.8 14.7 12.4 24.6 14.4 9.9 2.1 20.3 0.6 28.4-3.3 0.5-0.3 0.4-0.4 1-0.6 2.8-0.9 6.2-3.8 8.1-4.9 0.9-1 3.3-2.7 3.6-3.7 1.7-1.4 3.4-3.7 4.3-5.2 0.5-0.8 0.9-0.8 1.1-1.3-0.1 0 1.6-2.1 2.1-3.3-0.2 0-0.5 0.6-0.5 0 3.6-6.9 5.6-16.2 4.5-22.6 0.2 7.9-1.8 16.7-5.6 22.3-1.7 3.6-5.2 7.5-8.4 10.3-0.5 0.5-1 1.1-1.6 1.5-1.9 1.6-4 2.9-6.2 4.1-5.2 2.9-11 5.4-17.8 5.5 11.7-1 22.2-6.9 28-14.1-4.4 4.3-6.3 6-11.2 8.5-0.4 0.7-3.7 2.1-5.9 2.7 1.3-0.6 4-1.6 4.9-2.4-7.3 3.5-15.4 5.5-23 4.4 2.9 0 7 0.1 10.9-0.6 0.6-0.2 0.9-0.4 1.6-0.5 7.6-1.7 14.9-5.4 20.1-10.6-3 2.7-7.5 5.9-10.4 6.9 2.7-1.5 7.6-4.4 9.2-6.6-3.2 3.2-9.2 6.4-13 7.8-0.6 0.1 0.4-0.4-0.6 0-1.2 0.3-0.7 0.3-1 0.5-4.6 1.3-9.9 2.4-14.3 2-0.8-0.1-1.1-0.3-1.8-0.3-0.8-0.1-1.5-0.1-2.4-0.1-3.5-0.4-7.3-1.8-10.1-3-1.5-0.7-3-1.2-4.5-2.1-1.2-0.7-2.2-1.5-3.2-2.3-3.8-2.8-7-5.6-10-9.6-5.4-7.5-8.2-16.9-7.8-26.2 0.4-9.3 4.1-18.4 10-25.1-0.3 0.3 0.4-0.7 1-1.3 0 0.2-0.1 0.5 0.6-0.2 0.6-0.7-0.2-0.2 0.1-0.6 6.2-6.8 17-12.3 28.1-12.5 0.4-0.3 1.1-0.7 1.9-0.5 0 0.1-0.5 0.1-0.5 0.1 1.1-0.1 2.1-0.1 2.6 0.1 0.1-0.1-0.4-0.2 0-0.2 0.7 0.2 0.9 0 1.3 0.2-0.3 0-0.6 0-0.8 0.1 2.5 0 4.1 0.6 6.6 0.8-1.3-0.3-1.6-0.3-2.6-0.6 1.1 0.2 1.6 0.4 2.1 0.3-0.2 0-0.1-0.3 0.1-0.2 2 0.5 2.2 0.7 4.3 1.4 0.2-0.2-0.9-0.3-1.2-0.6 2 0.7 3.8 1.2 5 2-0.4-0.3-1.6-0.7-2.5-1.1-0.1 0.1 0.3 0.2 0.4 0.4-1-0.5-2.4-1-3.8-1.2 1.2 0.3 2 0.7 2.5 0.9-1.1-0.2-2.5-0.9-4.1-1.2 2.6 0.8 7.5 2.6 10.5 4.2-1.1-0.7-2.4-1.2-3.1-1.6 0.6 0.1 1.3 0.5 1.3 0.3 0.7 0.3 1.6 1 2.1 1.1-0.9-0.6-2.7-1.5-3.3-1.8 7.5 3.4 14.2 9.1 18.5 16.4 0.4 0.7 1 2.3 1.5 2.5-0.1-0.5-0.5-0.8-0.9-1.6 0.2 0 0.2-0.3 0-0.6-0.4-0.5 0 0.4-0.4-0.1-1.8-3.3-4-6.2-7.4-9.4 1.9 1.8 0.5 0.5 0.1-0.1 2.6 2.3 5.6 6.2 6.9 8.2-0.2-0.3-0.3-0.5-0.2-0.5 2.4 4.1 3.9 7.8 5.4 13.1 0.1 0.1 0-0.4 0.2-0.1 1 4.2 1.3 7.7 1.2 10.9 0.8-5.4-1-13.8-4.2-20.4-0.4-0.8-0.4-0.2-0.8-1.1 0-0.3-0.3-0.9-0.5-1.3-4-6.6-8.9-11.3-14.7-15 0.4 0.2 1.2 0.8 1.2 0.7-10.8-7.1-23.3-8.1-33.6-5.9-0.7 0.3-1 0.6-1.8 1 1.5-0.5 2.4-0.6 3.8-0.9 0.3-0.3-1.3 0.1-0.6-0.2 0.1 0.1 1.4-0.2 1.7-0.1 0 0.1-0.4 0.2-0.5 0.3 3.3-0.7 6.7-0.8 9.6-0.6-1.7 0.1-4.8-0.2-5.8 0.3 1-0.1 2.4-0.2 3.3-0.1-1.2 0-3.4 0.1-4.4 0.2-0.1-0.1 1.6-0.3 0.5-0.3-0.5 0.1-1.3 0.1-1.6 0.4-8.6 0.8-17 5.3-22.9 10.6-1.2 1-2.6 2.1-3.5 3.2-2.2 2.5-3.6 5-5.2 7.2 1-2.1 3.2-5.3 5.8-8 2.6-2.7 5.4-5 6.9-6.2 0 0.4 2.4-1.5 3.3-2.1-0.6 0.5 0.4-0.2 0.6-0.1 3.2-1.9 5.8-2.6 8.7-3.7-0.7 0.2-1.3 0.4-1.4 0.3 0.7-0.2 1.1-0.4 1-0.5-2.8 0.8-7.2 2.7-10.7 4.8 6.3-4.3 14.3-6.9 22.2-7 7.9-0.2 15.6 1.8 21.7 5 4.1 1.8 8 5.1 11.1 8.3 0.9 0.8 0.2-0.2 1.5 1.2-0.4-0.2-0.7-0.4-0.2 0.2 0.8 0.9-0.2-0.7 1.1 0.9-0.1 0-0.5-0.5-0.5-0.3 3.5 3.1 6.2 8.7 7.8 12.4-0.4-1.5-1.4-3.6-2.2-5.1 2.4 4.4 3.2 7 4.2 10.9 0.4 0.3-0.2-1.4 0.2-0.6 0.1 0.6 0.2 2.5 0.6 2.8-0.3-1.9-0.8-4.2-1.2-4.6 0.3 0.2-0.5-2.3-1-2.9-0.2-1.6-1.6-4.4-2.8-6.5-4.3-8.4-12-15.3-20.6-19.1 0-0.2-0.5-0.4-0.7-0.6-8.5-3.6-18.7-4.6-28.5-2.3-9.9 2.4-19.2 8.1-25.8 16.3 0.3-1 2.8-2.9 2.9-3.7-2.9 3.1-6 7.2-8.1 11.6-2.2 4.4-3.4 8.9-3.9 12.2" fill="#fbfbf8" fill-rule="nonzero" stroke="none" stroke-width="1" stroke-linecap="butt" stroke-linejoin="miter" stroke-miterlimit="10" stroke-dasharray="" stroke-dashoffset="0" font-family="none" font-weight="none" font-size="none" text-anchor="none" style="mix-blend-mode: normal" data-fill-palette-color="tertiary"></path></g><g transform="matrix(1,0,0,1,48.000000000000014,142.4402339481012)"><svg viewBox="0 0 223.99999999999997 75.11953210379758" height="75.11953210379758" width="223.99999999999997"><g><svg viewBox="0 0 370.82851905432744 124.35921804511278" height="75.11953210379758" width="223.99999999999997"><g><rect width="8.11493677425564" height="107.98195488721804" x="117.47029229510937" y="8.188631578947373" fill="#fbfbf8" opacity="1" stroke-width="0" stroke="transparent" fill-opacity="1" class="rect-r$-0" data-fill-palette-color="primary" rx="1%" id="r$-0" data-palette-color="#fbfbf8"></rect></g><g transform="matrix(1,0,0,1,146.82851905432742,17.187127819548877)"><svg viewBox="0 0 224 89.98496240601503" height="89.98496240601503" width="224"><g id="textblocktransform"><svg viewBox="0 0 224 89.98496240601503" height="89.98496240601503" width="224" id="textblock"><g><svg viewBox="0 0 224 89.98496240601503" height="89.98496240601503" width="224"><g transform="matrix(1,0,0,1,0,0)"><svg width="224" viewBox="1.51 -36.18 90.92 36.52" height="89.98496240601503" data-palette-color="#fbfbf8"><path d="M40.77-35.99Q40.14-35.99 39.75-34.86 39.36-33.74 39.11-32.03 38.87-30.32 38.75-28.25 38.62-26.17 38.57-24.27 38.53-22.36 38.53-20.9 38.53-19.43 38.53-18.9L38.53-18.9Q38.53-15.97 38.5-13.11 38.48-10.25 38.48-7.32L38.48-7.32Q38.48-6.93 38.48-5.81 38.48-4.69 38.53-3.49 38.57-2.29 38.75-1.27 38.92-0.24 39.21 0L39.21 0 30.66 0Q30.96-0.24 31.13-1.44 31.3-2.64 31.4-4.27 31.49-5.91 31.54-7.81 31.59-9.72 31.59-11.43 31.59-13.13 31.59-14.43 31.59-15.72 31.59-16.16L31.59-16.16Q26.66-16.36 21.78-16.41 16.89-16.46 11.96-16.46L11.96-16.46 10.16-16.46Q10.16-14.16 10.13-11.91 10.11-9.67 10.11-7.37L10.11-7.37Q10.11-6.98 10.11-5.86 10.11-4.74 10.16-3.52 10.21-2.29 10.38-1.27 10.55-0.24 10.84 0L10.84 0 2.29 0Q2.59-0.29 2.78-1.88 2.98-3.47 3.1-5.71 3.22-7.96 3.25-10.6 3.27-13.23 3.27-15.63 3.27-18.02 3.25-19.85 3.22-21.68 3.22-22.41L3.22-22.41Q3.22-22.8 3.25-23.95 3.27-25.1 3.25-26.56 3.22-28.03 3.15-29.64 3.08-31.25 2.88-32.62 2.69-33.98 2.34-34.91 2-35.84 1.51-35.99L1.51-35.99 12.45-35.99Q11.87-35.99 11.47-35.01 11.08-34.03 10.84-32.52 10.6-31.01 10.45-29.17 10.3-27.34 10.25-25.68 10.21-24.02 10.21-22.73 10.21-21.44 10.21-21L10.21-21Q15.53-20.9 20.87-20.85 26.22-20.8 31.59-20.95L31.59-20.95 31.59-22.41Q31.59-22.85 31.62-23.97 31.64-25.1 31.62-26.56 31.59-28.03 31.52-29.64 31.45-31.25 31.25-32.62 31.05-33.98 30.71-34.91 30.37-35.84 29.88-35.99L29.88-35.99 40.77-35.99ZM79.34-6.1L79.34-6.1Q79.34-7.37 79.29-8.57 79.25-9.77 79.1-11.04L79.1-11.04 76.71-11.04Q76.12-11.04 75.27-11.06 74.41-11.08 73.51-11.06 72.6-11.04 71.77-10.99 70.94-10.94 70.36-10.79L70.36-10.79 71.09-15.87Q72.17-15.63 73.48-15.63 74.8-15.63 75.93-15.63L75.93-15.63Q76.51-15.58 77.85-15.55 79.2-15.53 80.91-15.5 82.61-15.48 84.49-15.48 86.37-15.48 88.01-15.5 89.65-15.53 90.84-15.58 92.04-15.63 92.38-15.77L92.38-15.77 92.43-10.5Q91.35-10.74 89.84-10.77 88.33-10.79 87.2-10.84L87.2-10.84Q86.91-8.98 86.81-7.03 86.72-5.08 86.72-3.17L86.72-3.17 86.72-2.29Q84.62-1.61 82.3-1.1 79.98-0.59 77.56-0.27 75.14 0.05 72.75 0.2 70.36 0.34 68.16 0.34L68.16 0.34Q65.96 0.34 63.3 0.05 60.64-0.24 57.91-0.93 55.17-1.61 52.59-2.71 50-3.81 48-5.42 45.99-7.03 44.77-9.2 43.55-11.38 43.55-14.21L43.55-14.21Q43.55-17.63 44.85-20.58 46.14-23.54 48.34-25.98 50.53-28.42 53.44-30.32 56.35-32.23 59.54-33.52 62.74-34.81 66.04-35.5 69.33-36.18 72.36-36.18L72.36-36.18Q75.24-36.18 78.22-35.72 81.2-35.25 83.64-34.01 86.08-32.76 87.64-30.57 89.21-28.37 89.21-24.85L89.21-24.85Q89.21-23.58 89.01-22.29 88.82-21 88.43-19.78L88.43-19.78 78.81-19.78Q79.69-20.9 80.47-22.39 81.25-23.88 81.25-25.44L81.25-25.44Q81.25-27.15 80.1-28.27 78.95-29.39 77.32-30.03 75.68-30.66 73.9-30.91 72.12-31.15 70.8-31.15L70.8-31.15Q67.58-31.15 64.28-29.98 60.98-28.81 58.32-26.68 55.66-24.56 53.95-21.66 52.24-18.75 52.24-15.28L52.24-15.28Q52.24-13.23 53.02-11.65 53.81-10.06 55.1-8.91 56.39-7.76 58.1-7.01 59.81-6.25 61.64-5.79 63.47-5.32 65.33-5.13 67.19-4.93 68.85-4.93L68.85-4.93Q71.48-4.93 74.09-5.25 76.71-5.57 79.34-6.1Z" opacity="1" transform="matrix(1,0,0,1,0,0)" fill="#fbfbf8" class="wordmark-text-0" data-fill-palette-color="primary" id="text-0"></path></svg></g></svg></g></svg></g></svg></g><g><svg viewBox="0 0 96.22700231014697 124.35921804511278" height="124.35921804511278" width="96.22700231014697"><g><svg xmlns="http://www.w3.org/2000/svg" xmlns:xlink="http://www.w3.org/1999/xlink" version="1.1" x="0" y="0" viewBox="12.983 1 75.68599999999999 97.813" enable-background="new 0 0 100 100" xml:space="preserve" height="124.35921804511278" width="96.22700231014697" class="icon-icon-0" data-fill-palette-color="accent" id="icon-0"><g fill="#ffff00" data-fill-palette-color="accent"><polygon fill-rule="evenodd" clip-rule="evenodd" points="12.983,10.59 30.001,98.813 24.129,39.764 53.15,37.872 53.096,27.989    64.549,1 53.622,18.977  " fill="#ffff00" data-fill-palette-color="accent"></polygon><polygon fill-rule="evenodd" clip-rule="evenodd" points="59.389,54.548 64.549,1.007 55.809,40.723 36.197,41.768 37.767,62.23    30.001,98.813 42.058,58.914  " fill="#ffff00" data-fill-palette-color="accent"></polygon><polygon fill-rule="evenodd" clip-rule="evenodd" points="62.8,67.182 63.349,56.729 47.37,60.484 47.338,72.281 30.001,98.813    51.681,71.197  " fill="#ffff00" data-fill-palette-color="accent"></polygon><polygon fill-rule="evenodd" clip-rule="evenodd" points="65.711,62.394 80.552,57.663 82.061,45.131 66.162,47.226  " fill="#ffff00" data-fill-palette-color="accent"></polygon><polygon fill-rule="evenodd" clip-rule="evenodd" points="72.07,44.502 83.058,43.085 84.639,32.807 76.56,32.434 64.549,1    72.979,31.967  " fill="#ffff00" data-fill-palette-color="accent"></polygon><polygon fill-rule="evenodd" clip-rule="evenodd" points="87.413,31.294 88.669,21.788 79.125,19.094 64.549,1 79.032,23.437    78.61,30.437  " fill="#ffff00" data-fill-palette-color="accent"></polygon></g></svg></g></svg></g></svg></g></svg></g></svg></g><defs></defs></svg><rect width="320" height="360" fill="none" stroke="none" visibility="hidden"></rect></g></svg></g></svg>